# Blender v2.78 (sub 0) OBJ File: ''
# www.blender.org
mtllib diamond.mtl
o Cube
v 0.162428 -1.138492 0.319310
v 1.403754 -3.041505 4.707049
v -1.837572 -1.138492 2.319310
v -1.837571 -1.138492 0.319309
v -1.522811 2.837105 -2.861744
v 2.300020 0.861508 2.319310
v -1.837572 0.861508 2.319309
v -1.837572 0.861508 0.319310
vn -0.2352 -0.9430 -0.2352
vn -0.1656 0.9248 0.3426
vn 0.7865 -0.3020 -0.5387
vn -0.1899 0.3928 0.8998
vn -1.0000 -0.0000 -0.0000
vn -0.5117 -0.5117 -0.6902
usemtl Material
s off
f 1//1 2//1 3//1 4//1
f 5//2 8//2 7//2 6//2
f 1//3 5//3 6//3 2//3
f 2//4 6//4 7//4 3//4
f 3//5 7//5 8//5 4//5
f 5//6 1//6 4//6 8//6
